# xmcd CD database file
#
# Track frame offsets:
#	150
#	18827
#	39789
#	55094
#	72100
#	96436
#	109479
#	130665
#	153506
#	176707
#
# Disc length: 2520 seconds
#
# Revision: 0
# Processed by: cddbd v1.5.2PL0 Copyright (c) Steve Scherf et al.
# Submitted via: CDex 1.70beta2
#
DISCID=7d09d60a
DTITLE=Erhard Ufermann - Memoria al futuro
DYEAR=1900
DGENRE=Jazz
TTITLE0=Fly away
TTITLE1=Vals de la tierra
TTITLE2=Maria durch ein Dornwald ging
TTITLE3=Begehr dich so
TTITLE4=Nao esqueca
TTITLE5=Marie Luise Kaschnitz, Steht noch dahin
TTITLE6=Sag, wie es war
TTITLE7=Lembrancas do futuro
TTITLE8=A dream was born
TTITLE9=Verleih uns Frieden gnädiglich
EXTD=
EXTT0=
EXTT1=
EXTT2=
EXTT3=
EXTT4=
EXTT5=
EXTT6=
EXTT7=
EXTT8=
EXTT9=
PLAYORDER=
